  0
SECTION
  2
HEADER
  9
$ACADVER
  1
AC1009
  9
$EXTMAX
 10
51.810001373291
 20
128.5
 30
0.0
  9
$EXTMIN
 10
0.0
 20
0.0
 30
0.0
  9
$INSUNITS
 70
     4
  9
$LUNITS
 70
     2
  9
$LUPREC
 70
     4
  9
$MEASUREMENT
 70
     1
  0
ENDSEC
  0
SECTION
  2
TABLES
  0
TABLE
  2
LAYER
 70
     1
  0
LAYER
  2
0
 70
     0
 62
     7
  6
Continuous
  0
LAYER
  2
Default
 70
     0
 62
    70
  6
Continuous
  0
ENDTAB
  0
TABLE
  2
APPID
 70
     1
  0
APPID
  2
ACAD
 70
     0
  0
ENDTAB
  0
ENDSEC
  0
SECTION
  2
ENTITIES
  0
TEXT
  8
Default
 10
15.6394500000003
 20
120.806670000002
 30
0.0
 40
8.0919
  1
mixer
 72
     0
 73
     1
  0
POINT
  8
Default
 10
7.5
 20
125.5
 30
0.0
  0
POINT
  8
Default
 10
7.5
 20
3.0
 30
0.0
  0
POINT
  8
Default
 10
10.1500000000003
 20
20.0
 30
0.0
  0
POINT
  8
Default
 10
10.4900000000003
 20
107.209999999999
 30
0.0
  0
POINT
  8
Default
 10
44.3099999999956
 20
3.0
 30
0.0
  0
POINT
  8
Default
 10
44.3099999999956
 20
125.5
 30
0.0
  0
POINT
  8
Default
 10
30.4000000000003
 20
20.0
 30
0.0
  0
CIRCLE
  8
Default
 10
30.5000000000002
 20
107.229999999999
 30
0.0
 40
3.7
  0
CIRCLE
  8
Default
 10
30.4999999999999
 20
38.6399999999975
 30
0.0
 40
3.7
  0
CIRCLE
  8
Default
 10
30.5000000000002
 20
84.3699999999989
 30
0.0
 40
3.7
  0
CIRCLE
  8
Default
 10
30.5000000000001
 20
61.5099999999989
 30
0.0
 40
3.7
  0
POLYLINE
  8
Default
 66
     1
 10
0.0
 20
0.0
 30
0.0
 70
     0
  0
VERTEX
  8
Default
 10
18.9
 20
17.59
 42
0.0
  0
VERTEX
  8
Default
 10
18.9
 20
23.09
 42
0.0
  0
VERTEX
  8
Default
 10
16.7
 20
20.89
 42
0.0
  0
SEQEND
  0
POLYLINE
  8
Default
 66
     1
 10
0.0
 20
0.0
 30
0.0
 70
     0
  0
VERTEX
  8
Default
 10
21.7100000000002
 20
23.03
 42
0.0
  0
VERTEX
  8
Default
 10
21.7100000000002
 20
17.53
 42
0.0
  0
VERTEX
  8
Default
 10
23.9100000000002
 20
19.73
 42
0.0
  0
SEQEND
  0
POINT
  8
Default
 10
30.5000000000002
 20
107.229999999999
 30
0.0
  0
POINT
  8
Default
 10
30.5000000000002
 20
84.3699999999989
 30
0.0
  0
POINT
  8
Default
 10
30.5000000000001
 20
61.5099999999989
 30
0.0
  0
POINT
  8
Default
 10
30.5000000000001
 20
38.6499999999989
 30
0.0
  0
POINT
  8
Default
 10
30.4900000000003
 20
107.209999999999
 30
0.0
  0
POINT
  8
Default
 10
30.5433333333335
 20
84.373333333332
 30
0.0
  0
POINT
  8
Default
 10
30.4666666666668
 20
61.5366666666654
 30
0.0
  0
POINT
  8
Default
 10
30.5
 20
38.6799999999974
 30
0.0
  0
POINT
  8
Default
 10
10.5433333333335
 20
84.373333333332
 30
0.0
  0
POINT
  8
Default
 10
10.5000000000001
 20
61.5099999999989
 30
0.0
  0
POINT
  8
Default
 10
10.5
 20
38.6799999999974
 30
0.0
  0
POLYLINE
  8
Default
 66
     1
 10
0.0
 20
0.0
 30
0.0
 70
     1
  0
VERTEX
  8
Default
 10
51.8099999999956
 20
0.0
 42
0.0
  0
VERTEX
  8
Default
 10
51.8099999999956
 20
128.5
 42
0.0
  0
VERTEX
  8
Default
 10
0.0
 20
128.5
 42
0.0
  0
VERTEX
  8
Default
 10
0.0
 20
0.0
 42
0.0
  0
SEQEND
  0
POLYLINE
  8
Default
 66
     1
 10
0.0
 20
0.0
 30
0.0
 70
     0
  0
VERTEX
  8
Default
 10
10.4900000000003
 20
107.209999999999
 42
0.0
  0
VERTEX
  8
Default
 10
30.5000000000002
 20
107.229999999999
 42
0.0
  0
SEQEND
  0
POLYLINE
  8
Default
 66
     1
 10
0.0
 20
0.0
 30
0.0
 70
     0
  0
VERTEX
  8
Default
 10
30.5433333333335
 20
84.373333333332
 42
0.0
  0
VERTEX
  8
Default
 10
10.5433333333335
 20
84.373333333332
 42
0.0
  0
SEQEND
  0
POLYLINE
  8
Default
 66
     1
 10
0.0
 20
0.0
 30
0.0
 70
     0
  0
VERTEX
  8
Default
 10
10.5000000000001
 20
61.5099999999989
 42
0.0
  0
VERTEX
  8
Default
 10
30.4666666666668
 20
61.5366666666654
 42
0.0
  0
SEQEND
  0
POLYLINE
  8
Default
 66
     1
 10
0.0
 20
0.0
 30
0.0
 70
     0
  0
VERTEX
  8
Default
 10
30.5
 20
38.6799999999974
 42
0.0
  0
VERTEX
  8
Default
 10
10.5
 20
38.6799999999974
 42
0.0
  0
SEQEND
  0
ENDSEC
  0
EOF
